<?xml version="1.0" encoding="utf-8"?>
<!-- Generator: Adobe Illustrator 27.4.0, SVG Export Plug-In . SVG Version: 6.00 Build 0)  -->
<svg version="1.1" id="Layer_1" xmlns="http://www.w3.org/2000/svg" xmlns:xlink="http://www.w3.org/1999/xlink" x="0px" y="0px"
	 viewBox="0 0 408.6 112.1" style="enable-background:new 0 0 408.6 112.1;" xml:space="preserve">
<style type="text/css">
	.st0{fill-rule:evenodd;clip-rule:evenodd;fill:#FFFFFF;}
	.st1{fill:#FFFFFF;}
</style>
<g id="Group_4144" transform="translate(-49.766 -51.013)">
	<path id="Path_1" class="st0" d="M270.8,97.8h-17.6V64.9h-5.9v32.4c0,1.5,0.5,3,1.6,4.2c1.1,1.2,2.7,1.8,4.3,1.7h17.6
		c1.6,0.1,3.1-0.5,4.3-1.7c1.1-1.1,1.7-2.7,1.6-4.2V64.9h-5.9V97.8z"/>
	<path id="Path_2" class="st0" d="M243.3,103.2h-6.8l-15.3-17.4h-1.4v17.4H214V65h22.5c1.6,0,3.1,0.6,4.1,1.8
		c1.1,1.1,1.7,2.6,1.7,4.1v9c0,3.9-2,5.9-5.9,5.9h-8.2L243.3,103.2z M236.4,70.4h-16.6v10h16.6L236.4,70.4z"/>
	<path id="Path_3" class="st0" d="M288.1,85.7v17.4h-5.8V64.9h22.5c1.6,0,3.1,0.6,4.1,1.8c1.1,1.1,1.7,2.6,1.7,4.1v9
		c0,3.9-2,5.9-5.9,5.9L288.1,85.7L288.1,85.7z M304.8,70.3h-16.6v10h16.6V70.3z"/>
	<path id="Path_4" class="st0" d="M343.9,97.2c0,3.9-2,5.9-5.9,5.9h-17.6c-3.1,0-5-1.3-5.7-3.9c-0.1-0.6-0.2-1.3-0.2-2V70.8
		c0-1.5,0.6-3,1.7-4.1c1.1-1.2,2.6-1.9,4.2-1.8H338c1.6,0,3.1,0.6,4.1,1.8c1.1,1.1,1.7,2.6,1.7,4.1L343.9,97.2z M338,70.3h-17.6
		v27.4H338L338,70.3z"/>
	<path id="Path_5" class="st0" d="M208.3,103.2h-23.5c-3.1,0-5-1.3-5.7-3.9c-0.1-0.6-0.2-1.3-0.2-2V70.9c0-1.5,0.6-3,1.7-4.1
		c1.1-1.2,2.6-1.9,4.2-1.8h22.5v5.4h-22.5v27.5h17.6V85.8h-11.7v-5.4h17.6L208.3,103.2z"/>
	<path id="Path_6" class="st0" d="M244.5,149.3h-4.2l-19.5-26.6v26.6h-5.9v-38.6h4.2l19.5,26.6v-26.6h5.9L244.5,149.3z"/>
	<rect id="Rectangle_8" x="250.2" y="110.7" class="st1" width="5.9" height="38.6"/>
	<path id="Path_7" class="st0" d="M289.4,110.7l-11.8,38.6h-6l-11.8-38.6h5.7l9.2,29.9l9.1-29.9L289.4,110.7z"/>
	<path id="Path_8" class="st0" d="M351.5,149.3h-6.8l-15.5-17.6h-1.4v17.6h-5.9v-38.6h22.7c1.6,0,3.1,0.6,4.2,1.8
		c1.1,1.1,1.8,2.6,1.7,4.2v9.1c0,4-2,6-5.9,6h-8.3L351.5,149.3z M344.5,116.2h-16.8v10.1h16.8V116.2z"/>
	<path id="Path_9" class="st0" d="M383.9,143.4c0.1,1.5-0.5,3-1.5,4.2c-1.1,1.2-2.7,1.9-4.4,1.8h-21.2v-5.4H378v-12.1h-15.8
		c-1.4,0-2.7-0.4-3.8-1.2c-1-0.8-1.7-1.9-2-3.2c-0.1-0.5-0.2-1.1-0.2-1.6v-9.1c0-1.5,0.6-3,1.7-4.1c1.1-1.2,2.7-1.9,4.3-1.8h19.6
		v5.4h-19.7v10.1H378c1.6,0,3.1,0.6,4.2,1.7c1.1,1.1,1.7,2.7,1.7,4.2L383.9,143.4z"/>
	<path id="Path_10" class="st0" d="M419.3,149.3h-5.9v-17.6h-17.8v17.6h-5.9v-32.6c0-1.6,0.5-3.1,1.6-4.2c1.1-1.2,2.7-1.8,4.3-1.7
		h17.8c3.1,0.3,5.6,2.8,5.9,6L419.3,149.3z M413.3,116.2h-17.8v10.1h17.8V116.2z"/>
	<path id="Path_11" class="st0" d="M448.7,149.3H425v-38.6h5.9v33.2h17.8V149.3z"/>
	<path id="Path_12" class="st1" d="M455.3,149.4c-1.7,0-3.1-1.3-3.2-3c0-1.7,1.3-3.1,3-3.2c1.7,0,3.1,1.3,3.2,3c0,0,0,0.1,0,0.1
		c0.1,1.6-1.1,3-2.7,3.1C455.5,149.4,455.4,149.4,455.3,149.4 M455.3,143.5c-1.5-0.1-2.8,1.1-2.9,2.7c-0.1,1.5,1.1,2.8,2.7,2.9
		c1.5,0.1,2.8-1.1,2.9-2.7c0,0,0-0.1,0-0.1c0.1-1.4-1-2.7-2.4-2.8C455.5,143.5,455.4,143.5,455.3,143.5 M456.2,148l-1-1.5h-0.4v1.4
		h-0.5v-3.4h0.9c0.7,0,1.2,0.4,1.2,1c0,0.4-0.3,0.8-0.7,0.9l1,1.4L456.2,148z M455.3,145h-0.4v1.2h0.4c0.4,0,0.7-0.2,0.7-0.6
		C456,145.2,455.7,145,455.3,145"/>
	<path id="Path_13" class="st0" d="M316.8,116.2v-5.4h-23.7v38.6h23.7v-5.5H299v-12.1h15.5v-5.5H299v-10.1L316.8,116.2z"/>
	<path id="Path_14" class="st0" d="M203.1,143.9h-17.7v-27.2l-5.9-5.9h0v32.6c0,1.6,0.5,3.1,1.6,4.2c1.1,1.2,2.7,1.8,4.3,1.7h17.7
		c1.6,0.1,3.2-0.5,4.3-1.7c1.1-1.2,1.7-2.7,1.6-4.3v-32.6h-6L203.1,143.9z"/>
	<path id="Path_15" class="st1" d="M145.6,99.8h-30.9l-7.2,7.2h38.1c0.3,0,0.6,0,1-0.1c1.6-0.1,3.1-0.8,4.2-1.9
		c0.8-0.7,1.3-1.6,1.7-2.5c0.2-0.5,0.3-0.9,0.3-1.4c0.1-0.4,0.1-0.9,0.1-1.4V78.2c0.1-2-0.7-3.9-2.1-5.3c-1.4-1.3-3.3-2-5.2-2H137
		c0.3,0.9,0.5,1.8,0.5,2.7c0,0.1,0,0.2,0,0.4c-0.1,1.5-0.5,3-1.4,4.2h9.5L145.6,99.8z"/>
	<path id="Path_16" class="st1" d="M107,78.2h15.7l4.4-4.4l-2.9-2.9H107V78.2z"/>
	<path id="Path_17" class="st1" d="M128.9,73.8L107,95.6v10.2L134,78.9c0.2-0.2,0.4-0.5,0.6-0.7c1-1.2,1.6-2.7,1.7-4.3
		c0-1-0.2-2.1-0.6-3c-0.2-0.4-0.5-0.8-0.7-1.2c-0.3-0.4-0.6-0.7-0.9-1l-15.3-15.3c-1.3-1.4-3.2-2.3-5.2-2.3
		c-1.9,0.1-3.8,0.9-5.1,2.3l-6.1,6.1c0.8,0.4,1.6,0.9,2.2,1.5c0.1,0.1,0.2,0.2,0.2,0.3c1,1.1,1.7,2.5,2,4l6.7-6.7L128.9,73.8z"/>
	<path id="Path_18" class="st1" d="M97.3,74.6v-6.2h-4.1L81.1,80.6l5.1,5.2L97.3,74.6z"/>
	<path id="Path_19" class="st1" d="M76.9,105.8V90.1l-4.4-4.4l-2.9,2.9v17.2H76.9z"/>
	<path id="Path_20" class="st1" d="M98.6,67.2v30.9l7.2,7.2V67.2c0-0.3,0-0.6-0.1-1c-0.1-1.6-0.8-3-1.9-4.2
		c-0.7-0.8-1.6-1.3-2.5-1.7c-0.5-0.2-0.9-0.3-1.4-0.3c-0.4-0.1-0.9-0.1-1.4-0.1H76.9c-2-0.1-3.9,0.7-5.3,2.1c-1.3,1.4-2,3.3-2,5.2
		v8.6c0.9-0.3,1.8-0.5,2.7-0.5c0.1,0,0.2,0,0.4,0c1.5,0.1,3,0.5,4.2,1.4v-9.5H98.6z"/>
	<path id="Path_21" class="st1" d="M105.8,108.8v38.1c0,0.3,0,0.6,0.1,0.9c0.1,1.6,0.8,3.1,1.9,4.2c0.7,0.8,1.6,1.3,2.5,1.7
		c0.5,0.2,0.9,0.3,1.4,0.3c0.4,0.1,0.9,0.1,1.4,0.1h21.7c2,0.1,3.9-0.7,5.3-2.1c1.3-1.4,2-3.3,2-5.2v-38.6h-7.3v38.6H113V116
		L105.8,108.8z"/>
	<path id="Path_22" class="st1" d="M72.5,84l21.8,21.8h10.2L77.6,78.9c-0.2-0.2-0.5-0.4-0.7-0.6c-1.2-1-2.7-1.6-4.3-1.7
		c-1,0-2.1,0.2-3,0.6c-0.4,0.2-0.8,0.5-1.2,0.7c-0.4,0.3-0.7,0.6-1,0.9L52.1,94.1c-1.4,1.3-2.3,3.2-2.3,5.2c0.1,1.9,0.9,3.8,2.3,5.1
		l6.1,6.1c0.4-0.8,0.9-1.6,1.5-2.2c0.1-0.1,0.2-0.2,0.3-0.2c1.1-1,2.5-1.7,4-2l-6.7-6.7L72.5,84z"/>
	<path id="Path_23" class="st1" d="M84.5,126.6l-11.1-11.1h-6.2v4.1l12.2,12.2L84.5,126.6z"/>
	<path id="Path_24" class="st1" d="M66,114.3h30.9l7.2-7.2H66c-0.3,0-0.6,0-1,0.1c-1.6,0.1-3,0.8-4.2,1.9c-0.8,0.7-1.3,1.6-1.7,2.5
		c-0.2,0.5-0.3,0.9-0.3,1.4c-0.1,0.5-0.1,0.9-0.1,1.4v21.7c-0.1,2,0.7,3.9,2.1,5.3c1.4,1.3,3.3,2,5.2,2h8.6
		c-0.3-0.9-0.5-1.8-0.5-2.7c0-0.1,0-0.2,0-0.4c0.1-1.5,0.5-3,1.4-4.2H66V114.3z"/>
	<path id="Path_25" class="st1" d="M104.3,135.9H88.9l-4.4,4.4l2.9,2.9h16.9L104.3,135.9z"/>
	<path id="Path_26" class="st1" d="M82.7,140.3l21.8-21.8v-10.2l-26.9,26.9c-0.2,0.2-0.4,0.5-0.6,0.7c-1,1.2-1.6,2.7-1.7,4.3
		c0,1,0.2,2.1,0.6,3c0.2,0.4,0.5,0.8,0.7,1.2c0.3,0.4,0.6,0.7,0.9,1l15.3,15.3c1.3,1.4,3.2,2.3,5.2,2.3c1.9-0.1,3.8-0.9,5.1-2.3
		l6.1-6.1c-0.8-0.4-1.6-0.9-2.2-1.5c-0.1-0.1-0.2-0.2-0.2-0.3c-1-1.1-1.7-2.5-2-4l-6.7,6.7L82.7,140.3z"/>
	<path id="Path_27" class="st1" d="M125.3,128.3l-11.1,11.1v6.2h4.1l12.2-12.2L125.3,128.3z"/>
	<path id="Path_28" class="st1" d="M107,108.3h10.2l16.2,16.2v10.2L107,108.3z"/>
	<path id="Path_29" class="st1" d="M127.1,87.5l11.1,11.1h6.2v-4.1l-12.2-12.2L127.1,87.5z"/>
	<path id="Path_30" class="st1" d="M159.5,109.6l-6.1-6.1c-0.4,0.8-0.9,1.6-1.5,2.2c-0.1,0.1-0.2,0.2-0.3,0.2c-1.1,1-2.5,1.7-4,2
		l6.7,6.7L143.2,126v10.2c0.4-0.3,0.7-0.6,1-0.9l15.3-15.3c1.4-1.3,2.3-3.2,2.3-5.2C161.8,112.8,160.9,111,159.5,109.6"/>
</g>
</svg>
